<?xml version="1.0" standalone="no"?>
<!DOCTYPE svg PUBLIC "-//W3C//DTD SVG 20010904//EN"
 "http://www.w3.org/TR/2001/REC-SVG-20010904/DTD/svg10.dtd">
<svg version="1.0" xmlns="http://www.w3.org/2000/svg"
 width="216.000000pt" height="114.000000pt" viewBox="0 0 216.000000 114.000000"
 preserveAspectRatio="xMidYMid meet">
<metadata>
Created by potrace 1.10, written by Peter Selinger 2001-2011
</metadata>
<g transform="translate(0.000000,114.000000) scale(0.050000,-0.050000)"
fill="#8ab666" stroke="none">
<path d="M1000 2090 c-62 -74 -13 -190 79 -190 63 0 121 55 121 113 0 89 -144
144 -200 77z"/>
<path d="M668 2030 c-19 -78 7 -146 92 -237 l79 -83 0 102 c1 135 -30 217 -91
245 -66 30 -65 31 -80 -27z"/>
<path d="M1391 2033 c-48 -48 -81 -182 -68 -274 9 -59 125 46 170 154 53 127
-15 207 -102 120z"/>
<path d="M888 1821 c2 -142 13 -160 105 -161 32 0 -4 150 -56 234 -52 85 -50
88 -49 -73z"/>
<path d="M1254 1924 c-116 -127 -116 -322 -1 -249 17 11 50 285 35 285 -1 0
-16 -16 -34 -36z"/>
<path d="M367 1808 c-51 -78 -4 -158 93 -158 53 0 75 12 98 53 41 73 -11 157
-98 157 -42 0 -69 -15 -93 -52z"/>
<path d="M640 1819 c0 -59 94 -259 122 -259 57 0 65 103 11 146 -30 24 -72 71
-93 104 l-40 60 0 -51z"/>
<path d="M1437 1756 c-84 -90 -91 -107 -72 -149 27 -60 54 -52 103 32 29 49
80 226 64 220 -1 0 -44 -46 -95 -103z"/>
<path d="M1624 1836 c-34 -34 -30 -127 7 -165 67 -66 189 -12 189 84 0 87
-134 143 -196 81z"/>
<path d="M835 1579 l-34 -60 65 -40 c81 -49 83 -49 111 12 42 93 33 114 -57
135 -41 10 -57 1 -85 -47z"/>
<path d="M1214 1616 c-38 -13 -53 -30 -45 -50 6 -16 17 -51 23 -78 7 -26 16
-48 21 -48 9 0 132 60 143 71 11 9 -56 129 -72 127 -7 0 -39 -10 -70 -22z"/>
<path d="M1054 1585 c-5 -8 -15 -49 -22 -90 l-14 -75 73 0 c62 0 71 6 60 35
-8 19 -19 60 -25 90 -10 51 -53 74 -72 40z"/>
<path d="M414 1523 c46 -34 94 -80 106 -102 20 -39 25 -39 81 -10 89 46 -9
127 -192 160 l-79 14 84 -62z"/>
<path d="M1678 1549 c-111 -34 -182 -102 -137 -130 48 -30 89 -22 131 26 22
25 66 65 99 90 68 50 40 55 -93 14z"/>
<path d="M175 1546 c-79 -20 -9 -135 101 -165 88 -25 204 -27 204 -5 0 22
-120 134 -174 162 -44 23 -70 24 -131 8z"/>
<path d="M1850 1527 c-68 -36 -170 -126 -170 -151 0 -63 293 13 331 86 47 90
-43 127 -161 65z"/>
<path d="M750 1461 c-18 -30 56 -163 87 -157 84 17 87 90 5 133 -44 23 -85 34
-92 24z"/>
<path d="M1315 1430 l-75 -43 55 -52 55 -53 43 78 c56 103 26 130 -78 70z"/>
<path d="M624 1373 c-40 -20 -45 -33 -33 -93 16 -87 8 -83 95 -56 81 25 93 60
43 132 -34 48 -38 49 -105 17z"/>
<path d="M1431 1341 c-42 -80 -39 -95 17 -109 27 -6 61 -17 77 -23 64 -25 78
128 14 161 -75 39 -73 39 -108 -29z"/>
<path d="M909 1299 c-155 -159 -45 -419 178 -419 139 0 239 104 240 250 0 225
-260 330 -418 169z m218 -142 c41 -66 -2 -109 -57 -57 -39 36 -44 53 -27 74
27 32 56 26 84 -17z"/>
<path d="M2196 1356 c33 -33 33 -399 0 -432 -19 -19 -5 -24 61 -24 78 0 83 3
54 31 -17 18 -31 66 -31 110 l0 79 100 0 100 0 0 -71 c0 -40 -9 -89 -21 -110
-18 -35 -13 -39 54 -39 58 0 70 5 51 24 -15 15 -24 93 -24 216 0 123 9 201 24
216 19 19 5 24 -61 24 -78 0 -83 -3 -54 -31 17 -18 31 -66 31 -110 l0 -79
-100 0 -100 0 0 89 c0 64 10 95 35 109 28 16 16 21 -54 21 -69 1 -84 -4 -65
-23z"/>
<path d="M2676 1356 c15 -15 24 -93 24 -216 0 -123 -9 -201 -24 -216 -19 -19
-5 -24 61 -24 78 0 83 3 54 31 -52 53 -41 169 16 169 36 0 56 -22 93 -100 41
-87 54 -100 107 -100 57 0 58 2 26 35 -19 19 -56 69 -83 110 l-49 75 50 49
c112 112 35 211 -165 211 -104 0 -129 -5 -110 -24z m220 -40 c67 -67 8 -176
-95 -176 -36 0 -41 12 -41 100 0 105 69 143 136 76z"/>
<path d="M240 1327 c0 -19 184 -107 247 -118 76 -14 94 35 36 94 -12 12 -283
35 -283 24z"/>
<path d="M1767 1325 c-116 -6 -125 -10 -144 -66 -27 -77 22 -80 170 -11 87 41
164 100 113 88 -9 -2 -72 -7 -139 -11z"/>
<path d="M3860 1284 c0 -20 -11 -47 -24 -60 -19 -19 -19 -24 0 -24 16 0 24
-41 24 -126 0 -165 100 -242 183 -141 24 30 22 33 -22 21 -74 -19 -101 18
-101 138 0 107 1 108 60 108 33 0 60 9 60 20 0 11 -28 20 -62 20 -53 0 -61 6
-52 40 8 30 0 40 -28 40 -23 0 -38 -14 -38 -36z"/>
<path d="M107 1188 c-51 -78 -4 -158 93 -158 53 0 75 12 98 53 41 73 -11 157
-98 157 -42 0 -69 -15 -93 -52z"/>
<path d="M1891 1209 c-37 -38 -41 -131 -7 -165 63 -63 196 -6 196 84 0 94
-123 146 -189 81z"/>
<path d="M3110 1207 c33 -33 33 -233 0 -287 -8 -12 17 -19 64 -18 42 0 65 6
51 11 -37 15 -33 235 5 267 74 61 136 -78 95 -212 l-21 -68 72 0 c56 0 67 5
48 24 -13 13 -24 72 -24 131 0 166 -90 247 -176 161 -19 -19 -24 -19 -24 0 0
13 -27 24 -61 24 -58 0 -60 -2 -29 -33z"/>
<path d="M3540 1200 c-93 -93 -33 -301 86 -299 67 0 151 49 127 72 -7 8 -24 4
-37 -9 -53 -53 -156 -2 -156 77 0 34 15 39 110 39 111 0 111 0 98 55 -25 106
-151 142 -228 65z m136 -4 c50 -50 28 -96 -46 -96 -77 0 -92 35 -39 89 38 37
53 39 85 7z"/>
<path d="M685 1175 c-86 -28 -82 -68 9 -94 85 -23 112 -7 103 60 -8 55 -27 61
-112 34z"/>
<path d="M1380 1132 c0 -81 -2 -80 103 -49 90 27 101 67 22 83 -30 6 -71 17
-90 25 -29 11 -35 2 -35 -59z"/>
<path d="M439 1037 c-39 -11 -96 -39 -126 -63 l-56 -45 127 1 c104 0 130 7
150 40 53 88 34 101 -95 67z"/>
<path d="M1621 1004 c19 -53 249 -110 296 -73 16 13 -175 107 -242 120 l-74
13 20 -60z"/>
<path d="M593 995 c-20 -74 -15 -87 38 -112 73 -33 78 -31 115 48 34 70 34 70
-17 90 -82 31 -123 23 -136 -26z"/>
<path d="M1431 1014 c-34 -25 -34 -31 -3 -90 36 -71 52 -76 117 -39 25 14 47
26 50 27 3 1 -5 30 -17 65 -24 69 -82 84 -147 37z"/>
<path d="M774 887 c-48 -97 -20 -121 74 -65 l74 43 -44 48 c-58 61 -61 60
-104 -26z"/>
<path d="M1282 913 l-44 -48 82 -43 c108 -56 130 -38 75 59 -53 93 -55 93
-113 32z"/>
<path d="M290 878 c-131 -30 -199 -145 -100 -170 64 -16 145 17 228 93 100 92
55 118 -128 77z"/>
<path d="M1705 883 c-27 -17 37 -88 140 -153 48 -30 195 -31 195 0 0 101 -243
212 -335 153z"/>
<path d="M493 808 c-21 -28 -66 -68 -100 -90 -75 -45 -26 -54 89 -15 127 43
190 99 147 130 -54 40 -94 32 -136 -25z"/>
<path d="M1555 838 c-68 -39 39 -121 195 -148 l80 -14 -83 62 c-46 34 -88 76
-94 92 -14 35 -48 37 -98 8z"/>
<path d="M1020 813 c0 -119 86 -198 106 -98 6 30 17 71 25 90 11 29 2 35 -59
35 -47 0 -72 -9 -72 -27z"/>
<path d="M880 783 c-38 -21 -69 -41 -67 -45 42 -103 57 -120 96 -110 22 6 52
12 66 12 31 0 31 53 -1 125 l-24 56 -70 -38z"/>
<path d="M1184 746 c-25 -83 -19 -95 60 -114 98 -23 139 95 52 148 -86 52 -86
52 -112 -34z"/>
<path d="M735 666 c-43 -48 -95 -172 -95 -228 0 -40 3 -39 45 14 24 32 65 74
90 94 51 42 56 71 19 122 -24 33 -27 33 -59 -2z"/>
<path d="M1387 677 c-44 -57 -46 -96 -6 -118 22 -11 67 -58 100 -103 67 -93
72 -84 29 55 -39 128 -94 203 -123 166z"/>
<path d="M380 580 c-62 -62 -6 -200 80 -200 33 0 120 94 120 129 0 44 -73 111
-120 111 -22 0 -58 -18 -80 -40z"/>
<path d="M1633 583 c-71 -78 -26 -188 77 -188 68 0 110 39 110 104 0 104 -120
158 -187 84z"/>
<path d="M924 583 c-21 -14 -51 -283 -32 -283 18 0 89 147 105 216 20 88 -5
110 -73 67z"/>
<path d="M1160 554 c0 -49 94 -254 117 -254 40 0 -1 277 -44 288 -67 18 -73
15 -73 -34z"/>
<path d="M778 487 c-114 -124 -145 -214 -99 -286 60 -95 170 84 158 256 l-7
86 -52 -56z"/>
<path d="M1320 469 c0 -189 107 -349 172 -259 47 64 10 161 -103 271 l-69 67
0 -79z"/>
<path d="M1011 333 c-41 -30 -48 -119 -11 -163 33 -39 129 -38 169 1 96 96
-47 243 -158 162z"/>
</g>
</svg>
